<?xml version="1.0" encoding="UTF-8"?>
<svg width="512px" height="512px" viewBox="0 0 512 512" version="1.1" xmlns="http://www.w3.org/2000/svg" xmlns:xlink="http://www.w3.org/1999/xlink">
    <!-- Generator: Sketch 56.2 (81672) - https://sketch.com -->
    <title>512 - AE Logo Rounded 2</title>
    <desc>Created with Sketch.</desc>
    <g id="512---AE-Logo-Rounded-2" stroke="none" stroke-width="1" fill="none" fill-rule="evenodd">
        <path d="M89.8251675,450.280377 C91.3430718,448.517871 92.6226782,446.421751 93.664,443.992 L110.412,406.704 L217.536,406.704 L234.284,443.992 C236.180009,448.416022 238.918649,451.733989 242.5,453.946 C246.081351,456.158011 249.873313,457.264 253.876,457.264 C259.985364,457.264 265.409976,455.210021 270.15,451.102 C274.890024,446.993979 277.26,441.990696 277.26,436.092 C277.26,433.142652 276.417342,429.772019 274.732,425.98 L189.412,246.808 C186.883987,241.962642 183.30269,238.17068 178.668,235.432 C174.03331,232.69332 168.977361,231.324 163.5,231.324 C158.233307,231.324 153.28269,232.640653 148.648,235.274 C144.01331,237.907347 140.537345,241.751975 138.22,246.808 L57.2005989,416.948742 C21.4406515,373.054464 0,317.031098 0,256 C0,115.167389 114.167389,1 255,1 C395.832611,1 510,115.167389 510,256 C510,319.672788 486.663091,377.894949 448.075961,422.579794 C444.178638,419.369257 438.333925,417.764 430.541793,417.764 L343.641793,417.764 L343.641793,361.832 L424.221793,361.832 C439.811204,361.832 447.605793,355.512063 447.605793,342.872 C447.605793,330.021269 439.811204,323.596 424.221793,323.596 L343.641793,323.596 L343.641793,271.456 L430.541793,271.456 C446.131204,271.456 453.925793,265.030731 453.925793,252.18 C453.925793,239.539937 446.131204,233.22 430.541793,233.22 L318.677793,233.22 C311.304423,233.22 305.61648,235.221313 301.613793,239.224 C297.611106,243.226687 295.609793,248.91463 295.609793,256.288 L295.609793,432.932 C295.609793,440.30537 297.611106,445.993313 301.613793,449.996 C305.61648,453.998687 311.304423,456 318.677793,456 L413.209429,456 C369.734679,490.437158 314.768694,511 255,511 C191.992435,511 134.322201,488.148169 89.8251675,450.280377 Z M127.16,369.416 L164.132,287.256 L200.788,369.416 L127.16,369.416 Z" id="Combined-Shape" fill="#333333"></path>
    </g>
</svg>