<?xml version="1.0" encoding="UTF-8"?>
<svg width="492px" height="763px" viewBox="0 0 492 763" version="1.1" xmlns="http://www.w3.org/2000/svg" xmlns:xlink="http://www.w3.org/1999/xlink">
    <!-- Generator: Sketch 56.2 (81672) - https://sketch.com -->
    <title>Group 4</title>
    <desc>Created with Sketch.</desc>
    <g id="Page" stroke="none" stroke-width="1" fill="none" fill-rule="evenodd">
        <g id="Desktop-HD" transform="translate(-948.000000, 0.000000)">
            <g id="Hero" transform="translate(-74.000000, -66.000000)">
                <g id="Group-4" transform="translate(1016.000000, 19.000000)">
                    <rect id="Rectangle" fill="#235DB0" x="30" y="43" width="667" height="717"></rect>
                    <g id="Dots" transform="translate(327.000000, 90.000000)" fill="#FFFFFF">
                        <circle id="Oval" cx="5" cy="5" r="5"></circle>
                        <circle id="Oval-Copy-5" cx="5" cy="45" r="5"></circle>
                        <circle id="Oval-Copy-10" cx="5" cy="85" r="5"></circle>
                        <circle id="Oval-Copy-15" cx="5" cy="125" r="5"></circle>
                        <circle id="Oval-Copy-20" cx="5" cy="165" r="5"></circle>
                        <circle id="Oval-Copy" cx="45" cy="5" r="5"></circle>
                        <circle id="Oval-Copy-6" cx="45" cy="45" r="5"></circle>
                        <circle id="Oval-Copy-11" cx="45" cy="85" r="5"></circle>
                        <circle id="Oval-Copy-16" cx="45" cy="125" r="5"></circle>
                        <circle id="Oval-Copy-21" cx="45" cy="165" r="5"></circle>
                        <circle id="Oval-Copy-2" cx="85" cy="5" r="5"></circle>
                        <circle id="Oval-Copy-7" cx="85" cy="45" r="5"></circle>
                        <circle id="Oval-Copy-12" cx="85" cy="85" r="5"></circle>
                        <circle id="Oval-Copy-17" cx="85" cy="125" r="5"></circle>
                        <circle id="Oval-Copy-22" cx="85" cy="165" r="5"></circle>
                        <circle id="Oval-Copy-3" cx="125" cy="5" r="5"></circle>
                        <circle id="Oval-Copy-8" cx="125" cy="45" r="5"></circle>
                        <circle id="Oval-Copy-13" cx="125" cy="85" r="5"></circle>
                        <circle id="Oval-Copy-18" cx="125" cy="125" r="5"></circle>
                        <circle id="Oval-Copy-23" cx="125" cy="165" r="5"></circle>
                        <circle id="Oval-Copy-4" cx="165" cy="5" r="5"></circle>
                        <circle id="Oval-Copy-9" cx="165" cy="45" r="5"></circle>
                        <circle id="Oval-Copy-14" cx="165" cy="85" r="5"></circle>
                        <circle id="Oval-Copy-19" cx="165" cy="125" r="5"></circle>
                        <circle id="Oval-Copy-24" cx="165" cy="165" r="5"></circle>
                    </g>
                    <g id="Dots-Copy" opacity="0.191917783" transform="translate(242.000000, 586.000000)" fill="#FFFFFF">
                        <circle id="Oval" cx="5" cy="5" r="5"></circle>
                        <circle id="Oval-Copy-5" cx="5" cy="45" r="5"></circle>
                        <circle id="Oval-Copy-10" cx="5" cy="85" r="5"></circle>
                        <circle id="Oval-Copy-15" cx="5" cy="125" r="5"></circle>
                        <circle id="Oval-Copy-20" cx="5" cy="165" r="5"></circle>
                        <circle id="Oval-Copy" cx="45" cy="5" r="5"></circle>
                        <circle id="Oval-Copy-6" cx="45" cy="45" r="5"></circle>
                        <circle id="Oval-Copy-11" cx="45" cy="85" r="5"></circle>
                        <circle id="Oval-Copy-16" cx="45" cy="125" r="5"></circle>
                        <circle id="Oval-Copy-21" cx="45" cy="165" r="5"></circle>
                        <circle id="Oval-Copy-2" cx="85" cy="5" r="5"></circle>
                        <circle id="Oval-Copy-7" cx="85" cy="45" r="5"></circle>
                        <circle id="Oval-Copy-12" cx="85" cy="85" r="5"></circle>
                        <circle id="Oval-Copy-17" cx="85" cy="125" r="5"></circle>
                        <circle id="Oval-Copy-22" cx="85" cy="165" r="5"></circle>
                        <circle id="Oval-Copy-3" cx="125" cy="5" r="5"></circle>
                        <circle id="Oval-Copy-8" cx="125" cy="45" r="5"></circle>
                        <circle id="Oval-Copy-13" cx="125" cy="85" r="5"></circle>
                        <circle id="Oval-Copy-18" cx="125" cy="125" r="5"></circle>
                        <circle id="Oval-Copy-23" cx="125" cy="165" r="5"></circle>
                        <circle id="Oval-Copy-4" cx="165" cy="5" r="5"></circle>
                        <circle id="Oval-Copy-9" cx="165" cy="45" r="5"></circle>
                        <circle id="Oval-Copy-14" cx="165" cy="85" r="5"></circle>
                        <circle id="Oval-Copy-19" cx="165" cy="125" r="5"></circle>
                        <circle id="Oval-Copy-24" cx="165" cy="165" r="5"></circle>
                    </g>
                    <rect id="Rectangle" stroke="#EB8D31" stroke-width="10" transform="translate(203.500000, 755.500000) rotate(40.000000) translate(-203.500000, -755.500000) " x="170" y="722" width="67" height="67"></rect>
                    <rect id="Rectangle-Copy-3" stroke="#EB8D31" stroke-width="10" transform="translate(429.500000, 336.500000) rotate(65.000000) translate(-429.500000, -336.500000) " x="357" y="264" width="145" height="145"></rect>
                    <rect id="Rectangle-Copy-2" stroke="#EB8D31" stroke-width="10" transform="translate(45.500000, 45.500000) rotate(80.000000) translate(-45.500000, -45.500000) " x="12" y="12" width="67" height="67"></rect>
                    <rect id="Rectangle-Copy" stroke="#EB8D31" stroke-width="10" transform="translate(245.500000, 124.500000) rotate(60.000000) translate(-245.500000, -124.500000) " x="230" y="109" width="31" height="31"></rect>
                </g>
            </g>
        </g>
    </g>
</svg>