<?xml version="1.0" standalone="no"?>
<!DOCTYPE svg PUBLIC "-//W3C//DTD SVG 20010904//EN"
 "http://www.w3.org/TR/2001/REC-SVG-20010904/DTD/svg10.dtd">
<svg version="1.0" xmlns="http://www.w3.org/2000/svg"
 width="512.000000pt" height="512.000000pt" viewBox="0 0 512.000000 512.000000"
 preserveAspectRatio="xMidYMid meet">
<metadata>
Created by potrace 1.11, written by Peter Selinger 2001-2013
</metadata>
<g transform="translate(0.000000,512.000000) scale(0.100000,-0.100000)"
fill="#000000" stroke="none">
<path d="M2320 5089 c-36 -4 -83 -10 -105 -13 -22 -4 -68 -11 -103 -17 -355
-56 -748 -224 -1065 -455 -90 -66 -117 -89 -221 -184 -284 -260 -493 -564
-650 -946 -58 -140 -135 -437 -150 -575 -4 -31 -9 -67 -12 -80 -10 -40 -12
-450 -3 -514 4 -33 10 -82 13 -110 3 -27 8 -60 10 -71 2 -12 7 -38 10 -59 4
-20 20 -90 36 -155 61 -243 146 -446 289 -695 36 -62 128 -193 188 -268 45
-55 57 -66 69 -56 8 6 14 15 14 19 0 5 33 77 74 162 88 184 155 323 208 438
22 47 65 137 95 200 133 276 252 526 303 635 100 215 156 320 184 350 101 104
284 106 399 5 39 -34 110 -172 317 -615 42 -90 128 -271 200 -420 26 -55 69
-145 95 -200 26 -55 71 -149 100 -210 29 -60 74 -155 100 -210 26 -55 63 -134
83 -175 49 -101 54 -172 19 -233 -71 -120 -243 -155 -343 -70 -33 28 -57 70
-104 178 -23 55 -46 105 -50 110 -3 6 -21 45 -40 87 -18 43 -35 78 -39 79 -8
1 -987 1 -1032 0 -38 -1 -39 -2 -80 -96 -78 -182 -139 -308 -163 -340 l-24
-31 82 -61 c146 -111 337 -221 527 -306 157 -71 432 -150 600 -174 71 -10 760
-10 824 0 240 39 573 149 763 254 110 60 194 109 216 126 6 4 50 35 99 69 48
34 86 63 84 64 -2 2 -212 4 -468 4 -509 1 -526 3 -581 61 -64 66 -60 11 -61
1039 -1 1032 -3 1001 61 1065 63 63 59 63 757 61 l630 -2 45 -26 c64 -37 90
-90 86 -174 -6 -101 -60 -157 -164 -172 -26 -3 -245 -6 -487 -6 -242 0 -442
-3 -445 -7 -4 -6 -5 -437 -1 -499 1 -14 49 -16 419 -16 229 0 433 -3 453 -6
111 -17 171 -93 163 -206 -5 -64 -38 -116 -93 -143 l-46 -24 -445 -3 c-244 -2
-447 -7 -450 -12 -4 -6 -5 -514 -1 -542 1 -4 207 -7 459 -7 251 0 466 -2 477
-5 11 -2 32 -7 46 -11 22 -6 31 0 60 37 19 24 37 48 42 53 120 149 271 416
350 620 59 153 124 385 142 510 3 23 7 50 9 61 30 153 28 569 -3 754 -101 602
-368 1094 -817 1510 -41 38 -95 83 -184 153 -129 101 -354 227 -585 327 -65
29 -272 94 -335 106 -14 3 -41 9 -60 14 -41 11 -75 17 -265 45 -61 10 -452 13
-525 4z"/>
<path d="M1702 2198 c-7 -7 -12 -16 -12 -20 0 -8 -142 -329 -216 -486 -19 -41
-34 -75 -34 -78 0 -2 -20 -47 -45 -100 -25 -53 -45 -101 -45 -107 0 -9 95 -12
364 -12 l364 0 -13 30 c-7 17 -52 118 -100 225 -48 107 -96 214 -106 238 -10
23 -28 61 -38 85 -10 23 -38 85 -61 137 -24 52 -44 96 -45 97 -1 2 -7 -3 -13
-9z"/>
</g>
</svg>
